<?xml version="1.0" standalone="no"?>
<!DOCTYPE svg PUBLIC "-//W3C//DTD SVG 1.1//EN" "http://www.w3.org/Graphics/SVG/1.1/DTD/svg11.dtd" >
<!--
2013-9-30: Created.
-->
<svg>
<metadata>
Created by iconfont
</metadata>
<defs>

<font id="iconfont" horiz-adv-x="1024" >
  <font-face
    font-family="iconfont"
    font-weight="500"
    font-stretch="normal"
    units-per-em="1024"
    ascent="896"
    descent="-128"
  />
    <missing-glyph />
    
    <glyph glyph-name="x" unicode="x" horiz-adv-x="1001"
d="M281 543q-27 -1 -53 -1h-83q-18 0 -36.5 -6t-32.5 -18.5t-23 -32t-9 -45.5v-76h912v41q0 16 -0.5 30t-0.5 18q0 13 -5 29t-17 29.5t-31.5 22.5t-49.5 9h-133v-97h-438v97zM955 310v-52q0 -23 0.5 -52t0.5 -58t-10.5 -47.5t-26 -30t-33 -16t-31.5 -4.5q-14 -1 -29.5 -0.5
t-29.5 0.5h-32l-45 128h-439l-44 -128h-29h-34q-20 0 -45 1q-25 0 -41 9.5t-25.5 23t-13.5 29.5t-4 30v167h911zM163 247q-12 0 -21 -8.5t-9 -21.5t9 -21.5t21 -8.5q13 0 22 8.5t9 21.5t-9 21.5t-22 8.5zM316 123q-8 -26 -14 -48q-5 -19 -10.5 -37t-7.5 -25t-3 -15t1 -14.5
t9.5 -10.5t21.5 -4h37h67h81h80h64h36q23 0 34 12t2 38q-5 13 -9.5 30.5t-9.5 34.5q-5 19 -11 39h-368zM336 498v228q0 11 2.5 23t10 21.5t20.5 15.5t34 6h188q31 0 51.5 -14.5t20.5 -52.5v-227h-327z" />
    

    
    <glyph glyph-name="GammaLAB" unicode="&#58949;" d="M5875.2-96c-25.6 0-51.2 19.2-64 44.8l-320 768c-6.4 12.8-19.2 12.8-25.6 0l-294.4-723.2c-25.6-51.2-64-89.6-115.2-89.6h-499.2c-102.4 0-192 83.2-192 192V819.2c0 38.4 32 70.4 64 70.4 38.4 0 76.8-32 76.8-70.4v-723.2c0-25.6 19.2-51.2 51.2-51.2h460.8c12.8 0 19.2 6.4 25.6 19.2l300.8 742.4c19.2 51.2 70.4 89.6 128 89.6 57.6 0 108.8-32 128-83.2l332.8-806.4c12.8-38.4 0-76.8-38.4-89.6 0-6.4-12.8-12.8-19.2-12.8M2572.8-96c-38.4 0-70.4 32-70.4 70.4v192s25.6-32 70.4-32c44.8 0 70.4 32 70.4 32v-192c0-38.4-32-70.4-70.4-70.4M2508.8 524.8V812.8c0 32 19.2 57.6 44.8 64 6.4 0 12.8 6.4 25.6 6.4 19.2 0 38.4-6.4 57.6-25.6l140.8-172.8L2688 569.6l-38.4 44.8v-89.6l-70.4-89.6-70.4 89.6zM3033.6-96c-38.4 0-70.4 32-70.4 70.4v640l-326.4-403.2c-12.8-19.2-32-25.6-57.6-25.6-19.2 0-38.4 6.4-57.6 25.6l-332.8 409.6v-640c0-38.4-32-70.4-70.4-70.4-38.4 0-70.4 32-70.4 70.4v832c0 32 19.2 57.6 44.8 64 6.4 0 12.8 6.4 25.6 6.4 19.2 0 38.4-6.4 57.6-25.6l403.2-492.8L2982.4 857.6c12.8 19.2 32 25.6 57.6 25.6 6.4 0 12.8 0 25.6-6.4 25.6-12.8 44.8-38.4 44.8-64v-838.4c-6.4-38.4-38.4-70.4-76.8-70.4M6227.2 748.8c-19.2 0-38.4-19.2-38.4-38.4v-627.2c0-19.2 19.2-38.4 38.4-38.4h569.6c19.2 0 38.4 19.2 38.4 38.4V294.4c0 19.2-19.2 38.4-38.4 38.4h-409.6c-38.4 0-70.4 32-70.4 70.4 0 38.4 32 70.4 70.4 70.4h409.6c19.2 0 38.4 19.2 38.4 38.4V723.2c0 19.2-19.2 38.4-38.4 38.4h-569.6z m-32-838.4c-76.8 0-140.8 64-140.8 140.8V742.4c0 76.8 64 140.8 140.8 140.8h633.6c76.8 0 140.8-64 140.8-140.8v-249.6c0-38.4-19.2-76.8-44.8-96 25.6-19.2 44.8-64 44.8-96v-249.6c0-76.8-64-140.8-140.8-140.8h-633.6zM185.6-89.60000000000002c-102.4 0-185.6 83.2-185.6 185.6V697.6C0 800 83.2 883.2 185.6 883.2h665.6c38.4 0 70.4-32 70.4-70.4 0-38.4-32-70.4-70.4-70.4H185.6c-25.6 0-51.2-19.2-51.2-51.2v-608c0-25.6 19.2-51.2 51.2-51.2h544c25.6 0 51.2 19.2 51.2 51.2V320c0 25.6-19.2 51.2-51.2 51.2H492.8c-38.4 0-70.4 32-70.4 70.4S454.4 512 492.8 512h243.2c102.4 0 185.6-83.2 185.6-185.6v-224c0-102.4-83.2-185.6-185.6-185.6H185.6zM1094.4-89.60000000000002c-6.4 0-19.2 0-25.6 6.4-38.4 12.8-51.2 57.6-38.4 89.6l326.4 800c19.2 51.2 70.4 89.6 128 89.6 57.6 0 108.8-32 128-83.2l332.8-800c12.8-38.4 0-76.8-38.4-89.6-6.4-6.4-19.2-6.4-25.6-6.4-25.6 0-51.2 19.2-64 44.8l-320 768c-6.4 12.8-19.2 12.8-25.6 0l-307.2-768c-12.8-38.4-38.4-51.2-70.4-51.2M3315.2-89.60000000000002c-6.4 0-19.2 0-25.6 6.4-38.4 12.8-51.2 57.6-38.4 89.6l326.4 800C3596.8 857.6 3648 896 3705.6 896c57.6 0 108.8-32 128-83.2l332.8-800c12.8-38.4 0-76.8-38.4-89.6-6.4-6.4-19.2-6.4-25.6-6.4-25.6 0-51.2 19.2-64 44.8l-320 768c-6.4 12.8-19.2 12.8-25.6 0l-307.2-768c-12.8-38.4-38.4-51.2-70.4-51.2M3827.2-12.799999999999955c0-25.6-19.2-51.2-51.2-51.2h-140.8c-25.6 0-51.2 19.2-51.2 51.2V128c0 25.6 19.2 51.2 51.2 51.2H3776c25.6 0 51.2-19.2 51.2-51.2v-140.8z"  horiz-adv-x="6976" />

    
    <glyph glyph-name="GammaHorse" unicode="&#58950;" d="M533.333333-42.666667h17.066667c85.333333 12.8 153.6 85.333333 153.6 170.666667 0 51.2-21.333333 93.866667-55.466667 128-38.4 38.4-128 38.4-187.733333-17.066667l-136.533333-140.8 42.666666 396.8-183.466666 119.466667 196.266666-64 8.533334 93.866667c34.133333-21.333333 81.066667-34.133333 119.466666-42.666667 170.666667-29.866667 324.266667-119.466667 430.933334-251.733333V384c0 234.666667-192 426.666667-426.666667 426.666667S85.333333 618.666667 85.333333 384s192-426.666667 426.666667-426.666667h21.333333M533.333333-42.666667h17.066667c85.333333 12.8 153.6 85.333333 153.6 170.666667 0 51.2-21.333333 93.866667-55.466667 128-38.4 38.4-128 38.4-187.733333-17.066667l-136.533333-140.8 42.666666 396.8-183.466666 119.466667 196.266666-64 8.533334 93.866667c34.133333-21.333333 81.066667-34.133333 119.466666-42.666667 170.666667-29.866667 324.266667-119.466667 430.933334-251.733333V384c0 234.666667-192 426.666667-426.666667 426.666667S85.333333 618.666667 85.333333 384s192-426.666667 426.666667-426.666667h21.333333"  horiz-adv-x="1024" />

    
    <glyph glyph-name="arrow" unicode="&#58951;" d="M371.2 896L256 780.8 652.8 384 256-12.8l115.2-115.2 512 512zM371.2 896L256 780.8 652.8 384 256-12.8l115.2-115.2 512 512z"  horiz-adv-x="1024" />

    
    <glyph glyph-name="triangleUp" unicode="&#58952;" d="M1024 128L512 640 0 128z"  horiz-adv-x="1024" />

    
    <glyph glyph-name="triangleDown" unicode="&#58953;" d="M0 640l512-512 512 512zM0 640l512-512 512 512z"  horiz-adv-x="1024" />

    
    <glyph glyph-name="back" unicode="&#58954;" d="M853.333333 426.666667H332.8l238.933333 238.933333L512 725.333333l-341.333333-341.333333 341.333333-341.333333 59.733333 59.733333L332.8 341.333333H853.333333zM853.333333 426.666667H332.8l238.933333 238.933333L512 725.333333l-341.333333-341.333333 341.333333-341.333333 59.733333 59.733333L332.8 341.333333H853.333333z"  horiz-adv-x="1024" />

    
    <glyph glyph-name="arrow1" unicode="&#58955;" d="M345.6 768L256 678.4l294.4-294.4L256 89.6 345.6 0l384 384zM345.6 768L256 678.4l294.4-294.4L256 89.6 345.6 0l384 384z"  horiz-adv-x="1024" />

    
    <glyph glyph-name="alert" unicode="&#58956;" d="M512 810.666667C277.333333 810.666667 85.333333 618.666667 85.333333 384s192-426.666667 426.666667-426.666667 426.666667 192 426.666667 426.666667S746.666667 810.666667 512 810.666667z m42.666667-640h-85.333334v85.333333h85.333334v-85.333333z m0 170.666666h-85.333334V597.333333h85.333334v-256zM512 810.666667C277.333333 810.666667 85.333333 618.666667 85.333333 384s192-426.666667 426.666667-426.666667 426.666667 192 426.666667 426.666667S746.666667 810.666667 512 810.666667z m42.666667-640h-85.333334v85.333333h85.333334v-85.333333z m0 170.666666h-85.333334V597.333333h85.333334v-256z"  horiz-adv-x="1024" />

    
    <glyph glyph-name="business" unicode="&#58957;" d="M426.666667 213.333333v42.666667H128v-170.666667c0-46.933333 38.4-85.333333 85.333333-85.333333h597.333334c46.933333 0 85.333333 38.4 85.333333 85.333333v170.666667h-298.666667v-42.666667h-170.666666z m426.666666 384h-170.666666V682.666667l-85.333334 85.333333h-170.666666L341.333333 682.666667v-85.333334H170.666667c-46.933333 0-85.333333-38.4-85.333334-85.333333v-128c0-46.933333 38.4-85.333333 85.333334-85.333333h256v85.333333h170.666666v-85.333333h256c46.933333 0 85.333333 38.4 85.333334 85.333333V512c0 46.933333-38.4 85.333333-85.333334 85.333333z m-256 0h-170.666666V682.666667h170.666666v-85.333334zM426.666667 213.333333v42.666667H128v-170.666667c0-46.933333 38.4-85.333333 85.333333-85.333333h597.333334c46.933333 0 85.333333 38.4 85.333333 85.333333v170.666667h-298.666667v-42.666667h-170.666666z m426.666666 384h-170.666666V682.666667l-85.333334 85.333333h-170.666666L341.333333 682.666667v-85.333334H170.666667c-46.933333 0-85.333333-38.4-85.333334-85.333333v-128c0-46.933333 38.4-85.333333 85.333334-85.333333h256v85.333333h170.666666v-85.333333h256c46.933333 0 85.333333 38.4 85.333334 85.333333V512c0 46.933333-38.4 85.333333-85.333334 85.333333z m-256 0h-170.666666V682.666667h170.666666v-85.333334z"  horiz-adv-x="1024" />

    
    <glyph glyph-name="case" unicode="&#58958;" d="M785.066667 682.666667H238.933333C200.533333 682.666667 170.666667 652.8 170.666667 614.4V0l136.533333 136.533333h477.866667c38.4 0 68.266667 29.866667 68.266666 68.266667V614.4c0 38.4-29.866667 68.266667-68.266666 68.266667z m-238.933334-409.6h-68.266666V341.333333h68.266666v-68.266666z m0 136.533333h-68.266666V546.133333h68.266666v-136.533333zM785.066667 682.666667H238.933333C200.533333 682.666667 170.666667 652.8 170.666667 614.4V0l136.533333 136.533333h477.866667c38.4 0 68.266667 29.866667 68.266666 68.266667V614.4c0 38.4-29.866667 68.266667-68.266666 68.266667z m-238.933334-409.6h-68.266666V341.333333h68.266666v-68.266666z m0 136.533333h-68.266666V546.133333h68.266666v-136.533333z"  horiz-adv-x="1024" />

    
    <glyph glyph-name="check" unicode="&#58959;" d="M366.933333 230.4l-179.2 179.2L128 349.866667l238.933333-238.933334 512 512L819.2 682.666667zM366.933333 230.4l-179.2 179.2L128 349.866667l238.933333-238.933334 512 512L819.2 682.666667z"  horiz-adv-x="1024" />

    
    <glyph glyph-name="collapse" unicode="&#58960;" d="M469.333333 170.666667h426.666667v85.333333H469.333333v-85.333333z m-341.333333 213.333333l170.666667-170.666667V554.666667l-170.666667-170.666667z m0-384h768v85.333333H128v-85.333333zM128 768v-85.333333h768V768H128z m341.333333-256h426.666667V597.333333H469.333333v-85.333333z m0-170.666667h426.666667v85.333334H469.333333v-85.333334zM469.333333 170.666667h426.666667v85.333333H469.333333v-85.333333z m-341.333333 213.333333l170.666667-170.666667V554.666667l-170.666667-170.666667z m0-384h768v85.333333H128v-85.333333zM128 768v-85.333333h768V768H128z m341.333333-256h426.666667V597.333333H469.333333v-85.333333z m0-170.666667h426.666667v85.333334H469.333333v-85.333334z"  horiz-adv-x="1024" />

    
    <glyph glyph-name="authority" unicode="&#58961;" d="M759.466667 704c-4.266667 0-8.533333 0-8.533334 4.266667C669.866667 750.933333 597.333333 768 512 768c-85.333333 0-166.4-21.333333-238.933333-59.733333-8.533333-4.266667-21.333333 0-29.866667 8.533333-4.266667 8.533333 0 21.333333 12.8 29.866667C332.8 789.333333 422.4 810.666667 512 810.666667s170.666667-21.333333 256-64c8.533333-4.266667 12.8-17.066667 8.533333-29.866667 0-8.533333-8.533333-12.8-17.066666-12.8zM149.333333 482.133333c-4.266667 0-8.533333 0-12.8 4.266667-8.533333 4.266667-12.8 17.066667-4.266666 29.866667 42.666667 59.733333 93.866667 106.666667 162.133333 140.8C426.666667 725.333333 597.333333 725.333333 733.866667 657.066667c64-34.133333 119.466667-81.066667 162.133333-136.533334 8.533333-8.533333 4.266667-21.333333-4.266667-29.866666-8.533333-8.533333-21.333333-4.266667-29.866666 4.266666-38.4 55.466667-85.333333 93.866667-145.066667 123.733334-123.733333 64-277.333333 64-401.066667 0-59.733333-29.866667-106.666667-72.533333-145.066666-128-8.533333-4.266667-12.8-8.533333-21.333334-8.533334z m268.8-516.266666c-4.266667 0-12.8 4.266667-12.8 8.533333-38.4 38.4-55.466667 59.733333-85.333333 110.933333-29.866667 51.2-46.933333 115.2-46.933333 183.466667 0 128 106.666667 230.4 243.2 230.4s243.2-102.4 243.2-230.4c0-12.8-8.533333-21.333333-21.333334-21.333333s-21.333333 8.533333-21.333333 21.333333c0 102.4-89.6 187.733333-200.533333 187.733333s-200.533333-85.333333-200.533334-187.733333c0-59.733333 12.8-119.466667 38.4-162.133333 25.6-46.933333 46.933333-68.266667 76.8-102.4 8.533333-8.533333 8.533333-21.333333 0-29.866667-4.266667-4.266667-8.533333-8.533333-12.8-8.533333z m302.933334 81.066666c-51.2 0-93.866667 12.8-132.266667 38.4-64 42.666667-102.4 110.933333-102.4 187.733334 0 12.8 8.533333 21.333333 21.333333 21.333333s21.333333-8.533333 21.333334-21.333333c0-59.733333 29.866667-115.2 81.066666-153.6 29.866667-21.333333 64-29.866667 106.666667-29.866667 8.533333 0 25.6 0 42.666667 4.266667 12.8 0 21.333333-4.266667 25.6-17.066667 0-12.8-4.266667-21.333333-17.066667-25.6-17.066667-4.266667-38.4-4.266667-46.933333-4.266667z m-85.333334-89.6h-4.266666c-68.266667 17.066667-110.933333 42.666667-157.866667 89.6-59.733333 59.733333-93.866667 136.533333-93.866667 221.866667 0 68.266667 59.733333 123.733333 132.266667 123.733333s132.266667-55.466667 132.266667-123.733333c0-46.933333 38.4-81.066667 89.6-81.066667s89.6 38.4 89.6 81.066667c0 162.133333-140.8 290.133333-311.466667 290.133333-119.466667 0-230.4-68.266667-281.6-170.666666-17.066667-34.133333-25.6-76.8-25.6-119.466667 0-34.133333 4.266667-85.333333 29.866667-153.6 4.266667-12.8 0-21.333333-12.8-25.6-12.8-4.266667-25.6 0-25.6 12.8-21.333333 55.466667-29.866667 110.933333-29.866667 170.666667 0 51.2 8.533333 98.133333 29.866667 136.533333C247.466667 529.066667 371.2 605.866667 512 605.866667c196.266667 0 354.133333-149.333333 354.133333-332.8 0-68.266667-59.733333-123.733333-132.266666-123.733334-72.533333 0-132.266667 55.466667-132.266667 123.733334 0 46.933333-38.4 81.066667-89.6 81.066666s-89.6-38.4-89.6-81.066666c0-72.533333 29.866667-140.8 81.066667-192 38.4-38.4 81.066667-64 140.8-81.066667 12.8-4.266667 17.066667-17.066667 12.8-25.6-4.266667-8.533333-12.8-17.066667-21.333334-17.066667zM759.466667 704c-4.266667 0-8.533333 0-8.533334 4.266667C669.866667 750.933333 597.333333 768 512 768c-85.333333 0-166.4-21.333333-238.933333-59.733333-8.533333-4.266667-21.333333 0-29.866667 8.533333-4.266667 8.533333 0 21.333333 12.8 29.866667C332.8 789.333333 422.4 810.666667 512 810.666667s170.666667-21.333333 256-64c8.533333-4.266667 12.8-17.066667 8.533333-29.866667 0-8.533333-8.533333-12.8-17.066666-12.8zM149.333333 482.133333c-4.266667 0-8.533333 0-12.8 4.266667-8.533333 4.266667-12.8 17.066667-4.266666 29.866667 42.666667 59.733333 93.866667 106.666667 162.133333 140.8C426.666667 725.333333 597.333333 725.333333 733.866667 657.066667c64-34.133333 119.466667-81.066667 162.133333-136.533334 8.533333-8.533333 4.266667-21.333333-4.266667-29.866666-8.533333-8.533333-21.333333-4.266667-29.866666 4.266666-38.4 55.466667-85.333333 93.866667-145.066667 123.733334-123.733333 64-277.333333 64-401.066667 0-59.733333-29.866667-106.666667-72.533333-145.066666-128-8.533333-4.266667-12.8-8.533333-21.333334-8.533334z m268.8-516.266666c-4.266667 0-12.8 4.266667-12.8 8.533333-38.4 38.4-55.466667 59.733333-85.333333 110.933333-29.866667 51.2-46.933333 115.2-46.933333 183.466667 0 128 106.666667 230.4 243.2 230.4s243.2-102.4 243.2-230.4c0-12.8-8.533333-21.333333-21.333334-21.333333s-21.333333 8.533333-21.333333 21.333333c0 102.4-89.6 187.733333-200.533333 187.733333s-200.533333-85.333333-200.533334-187.733333c0-59.733333 12.8-119.466667 38.4-162.133333 25.6-46.933333 46.933333-68.266667 76.8-102.4 8.533333-8.533333 8.533333-21.333333 0-29.866667-4.266667-4.266667-8.533333-8.533333-12.8-8.533333z m302.933334 81.066666c-51.2 0-93.866667 12.8-132.266667 38.4-64 42.666667-102.4 110.933333-102.4 187.733334 0 12.8 8.533333 21.333333 21.333333 21.333333s21.333333-8.533333 21.333334-21.333333c0-59.733333 29.866667-115.2 81.066666-153.6 29.866667-21.333333 64-29.866667 106.666667-29.866667 8.533333 0 25.6 0 42.666667 4.266667 12.8 0 21.333333-4.266667 25.6-17.066667 0-12.8-4.266667-21.333333-17.066667-25.6-17.066667-4.266667-38.4-4.266667-46.933333-4.266667z m-85.333334-89.6h-4.266666c-68.266667 17.066667-110.933333 42.666667-157.866667 89.6-59.733333 59.733333-93.866667 136.533333-93.866667 221.866667 0 68.266667 59.733333 123.733333 132.266667 123.733333s132.266667-55.466667 132.266667-123.733333c0-46.933333 38.4-81.066667 89.6-81.066667s89.6 38.4 89.6 81.066667c0 162.133333-140.8 290.133333-311.466667 290.133333-119.466667 0-230.4-68.266667-281.6-170.666666-17.066667-34.133333-25.6-76.8-25.6-119.466667 0-34.133333 4.266667-85.333333 29.866667-153.6 4.266667-12.8 0-21.333333-12.8-25.6-12.8-4.266667-25.6 0-25.6 12.8-21.333333 55.466667-29.866667 110.933333-29.866667 170.666667 0 51.2 8.533333 98.133333 29.866667 136.533333C247.466667 529.066667 371.2 605.866667 512 605.866667c196.266667 0 354.133333-149.333333 354.133333-332.8 0-68.266667-59.733333-123.733333-132.266666-123.733334-72.533333 0-132.266667 55.466667-132.266667 123.733334 0 46.933333-38.4 81.066667-89.6 81.066666s-89.6-38.4-89.6-81.066666c0-72.533333 29.866667-140.8 81.066667-192 38.4-38.4 81.066667-64 140.8-81.066667 12.8-4.266667 17.066667-17.066667 12.8-25.6-4.266667-8.533333-12.8-17.066667-21.333334-17.066667z"  horiz-adv-x="1024" />

    
    <glyph glyph-name="cloud" unicode="&#58962;" d="M746.666667 448C725.333333 558.933333 627.2 640 512 640 418.133333 640 337.066667 588.8 298.666667 512c-98.133333-8.533333-170.666667-93.866667-170.666667-192C128 213.333333 213.333333 128 320 128h418.133333c89.6 0 162.133333 72.533333 162.133334 157.866667-4.266667 85.333333-68.266667 153.6-153.6 162.133333zM746.666667 448C725.333333 558.933333 627.2 640 512 640 418.133333 640 337.066667 588.8 298.666667 512c-98.133333-8.533333-170.666667-93.866667-170.666667-192C128 213.333333 213.333333 128 320 128h418.133333c89.6 0 162.133333 72.533333 162.133334 157.866667-4.266667 85.333333-68.266667 153.6-153.6 162.133333z"  horiz-adv-x="1024" />

    
    <glyph glyph-name="dashboard" unicode="&#58963;" d="M938.666667 520.533333c0-42.666667-34.133333-76.8-76.8-76.8-8.533333 0-12.8 0-21.333334 4.266667l-136.533333-136.533333c0-4.266667 4.266667-12.8 4.266667-21.333334 0-42.666667-34.133333-76.8-76.8-76.8s-76.8 34.133333-76.8 76.8c0 8.533333 0 12.8 4.266666 21.333334l-98.133333 98.133333c-4.266667 0-12.8-4.266667-21.333333-4.266667s-12.8 0-21.333334 4.266667l-174.933333-174.933333c0-4.266667 4.266667-12.8 4.266667-21.333334 0-42.666667-34.133333-76.8-76.8-76.8s-85.333333 29.866667-85.333334 72.533334 34.133333 76.8 76.8 76.8c8.533333 0 12.8 0 21.333334-4.266667l174.933333 174.933333c0 4.266667-4.266667 12.8-4.266667 21.333334 0 42.666667 34.133333 76.8 76.8 76.8s81.066667-29.866667 81.066667-72.533334c0-8.533333 0-12.8-4.266667-21.333333l98.133334-98.133333c4.266667 0 12.8 4.266667 21.333333 4.266666s12.8 0 21.333333-4.266666l136.533334 136.533333c0 4.266667-4.266667 12.8-4.266667 21.333333 0 42.666667 34.133333 76.8 76.8 76.8s81.066667-34.133333 81.066667-76.8zM938.666667 520.533333c0-42.666667-34.133333-76.8-76.8-76.8-8.533333 0-12.8 0-21.333334 4.266667l-136.533333-136.533333c0-4.266667 4.266667-12.8 4.266667-21.333334 0-42.666667-34.133333-76.8-76.8-76.8s-76.8 34.133333-76.8 76.8c0 8.533333 0 12.8 4.266666 21.333334l-98.133333 98.133333c-4.266667 0-12.8-4.266667-21.333333-4.266667s-12.8 0-21.333334 4.266667l-174.933333-174.933333c0-4.266667 4.266667-12.8 4.266667-21.333334 0-42.666667-34.133333-76.8-76.8-76.8s-85.333333 29.866667-85.333334 72.533334 34.133333 76.8 76.8 76.8c8.533333 0 12.8 0 21.333334-4.266667l174.933333 174.933333c0 4.266667-4.266667 12.8-4.266667 21.333334 0 42.666667 34.133333 76.8 76.8 76.8s81.066667-29.866667 81.066667-72.533334c0-8.533333 0-12.8-4.266667-21.333333l98.133334-98.133333c4.266667 0 12.8 4.266667 21.333333 4.266666s12.8 0 21.333333-4.266666l136.533334 136.533333c0 4.266667-4.266667 12.8-4.266667 21.333333 0 42.666667 34.133333 76.8 76.8 76.8s81.066667-34.133333 81.066667-76.8z"  horiz-adv-x="1024" />

    
    <glyph glyph-name="confirmed" unicode="&#58964;" d="M597.333333 512H85.333333v-85.333333h512V512z m0 170.666667H85.333333v-85.333334h512V682.666667zM85.333333 256h341.333334v85.333333H85.333333v-85.333333z m832 192L981.333333 384l-298.666666-298.666667-192 192L554.666667 341.333333l128-128 234.666666 234.666667zM597.333333 512H85.333333v-85.333333h512V512z m0 170.666667H85.333333v-85.333334h512V682.666667zM85.333333 256h341.333334v85.333333H85.333333v-85.333333z m832 192L981.333333 384l-298.666666-298.666667-192 192L554.666667 341.333333l128-128 234.666666 234.666667z"  horiz-adv-x="1024" />

    
    <glyph glyph-name="date" unicode="&#58965;" d="M384 426.666667H298.666667v-85.333334h85.333333v85.333334z m170.666667 0h-85.333334v-85.333334h85.333334v85.333334z m170.666666 0h-85.333333v-85.333334h85.333333v85.333334z m85.333334 298.666666h-42.666667V810.666667h-85.333333v-85.333334H341.333333V810.666667H256v-85.333334H213.333333c-46.933333 0-85.333333-38.4-85.333333-85.333333v-597.333333c0-46.933333 38.4-85.333333 85.333333-85.333334h597.333334c46.933333 0 85.333333 38.4 85.333333 85.333334V640c0 46.933333-38.4 85.333333-85.333333 85.333333z m0-682.666666H213.333333V512h597.333334v-469.333333zM384 426.666667H298.666667v-85.333334h85.333333v85.333334z m170.666667 0h-85.333334v-85.333334h85.333334v85.333334z m170.666666 0h-85.333333v-85.333334h85.333333v85.333334z m85.333334 298.666666h-42.666667V810.666667h-85.333333v-85.333334H341.333333V810.666667H256v-85.333334H213.333333c-46.933333 0-85.333333-38.4-85.333333-85.333333v-597.333333c0-46.933333 38.4-85.333333 85.333333-85.333334h597.333334c46.933333 0 85.333333 38.4 85.333333 85.333334V640c0 46.933333-38.4 85.333333-85.333333 85.333333z m0-682.666666H213.333333V512h597.333334v-469.333333z"  horiz-adv-x="1024" />

    
    <glyph glyph-name="clues" unicode="&#58966;" d="M597.333333 725.333333l98.133334-98.133333-123.733334-123.733333 59.733334-59.733334 123.733333 123.733334L853.333333 469.333333V725.333333h-256z m-170.666666 0H170.666667v-256l98.133333 98.133334 200.533333-200.533334V42.666667h85.333334v358.4L328.533333 627.2 426.666667 725.333333zM597.333333 725.333333l98.133334-98.133333-123.733334-123.733333 59.733334-59.733334 123.733333 123.733334L853.333333 469.333333V725.333333h-256z m-170.666666 0H170.666667v-256l98.133333 98.133334 200.533333-200.533334V42.666667h85.333334v358.4L328.533333 627.2 426.666667 725.333333z"  horiz-adv-x="1024" />

    
    <glyph glyph-name="device" unicode="&#58967;" d="M226.133333 610.133333h640V682.666667h-640c-38.4 0-68.266667-29.866667-68.266666-72.533334v-392.533333H85.333333v-106.666667h499.2v106.666667H226.133333V610.133333z m678.4-68.266666h-213.333333c-21.333333 0-34.133333-17.066667-34.133333-34.133334v-354.133333c0-21.333333 17.066667-34.133333 34.133333-34.133333h213.333333c21.333333 0 34.133333 17.066667 34.133334 34.133333V503.466667c0 21.333333-17.066667 38.4-34.133334 38.4z m-38.4-320H725.333333V469.333333h140.8v-247.466666zM226.133333 610.133333h640V682.666667h-640c-38.4 0-68.266667-29.866667-68.266666-72.533334v-392.533333H85.333333v-106.666667h499.2v106.666667H226.133333V610.133333z m678.4-68.266666h-213.333333c-21.333333 0-34.133333-17.066667-34.133333-34.133334v-354.133333c0-21.333333 17.066667-34.133333 34.133333-34.133333h213.333333c21.333333 0 34.133333 17.066667 34.133334 34.133333V503.466667c0 21.333333-17.066667 38.4-34.133334 38.4z m-38.4-320H725.333333V469.333333h140.8v-247.466666z"  horiz-adv-x="1024" />

    
    <glyph glyph-name="download" unicode="&#58968;" d="M810.666667 512h-170.666667V768H384v-256H213.333333l298.666667-298.666667 298.666667 298.666667zM213.333333 128v-85.333333h597.333334v85.333333H213.333333zM810.666667 512h-170.666667V768H384v-256H213.333333l298.666667-298.666667 298.666667 298.666667zM213.333333 128v-85.333333h597.333334v85.333333H213.333333z"  horiz-adv-x="1024" />

    
    <glyph glyph-name="inputCase" unicode="&#58969;" d="M810.666667 768H213.333333c-46.933333 0-85.333333-38.4-85.333333-85.333333v-597.333334c0-46.933333 38.4-85.333333 85.333333-85.333333h597.333334c46.933333 0 85.333333 38.4 85.333333 85.333333V682.666667c0 46.933333-38.4 85.333333-85.333333 85.333333z m0-512h-170.666667c0-72.533333-59.733333-128-128-128s-128 55.466667-128 128H213.333333V682.666667h597.333334v-426.666667z m-128 213.333333h-85.333334V597.333333h-170.666666v-128H341.333333l170.666667-170.666666 170.666667 170.666666zM810.666667 768H213.333333c-46.933333 0-85.333333-38.4-85.333333-85.333333v-597.333334c0-46.933333 38.4-85.333333 85.333333-85.333333h597.333334c46.933333 0 85.333333 38.4 85.333333 85.333333V682.666667c0 46.933333-38.4 85.333333-85.333333 85.333333z m0-512h-170.666667c0-72.533333-59.733333-128-128-128s-128 55.466667-128 128H213.333333V682.666667h597.333334v-426.666667z m-128 213.333333h-85.333334V597.333333h-170.666666v-128H341.333333l170.666667-170.666666 170.666667 170.666666z"  horiz-adv-x="1024" />

    
    <glyph glyph-name="expand" unicode="&#58970;" d="M469.333333 170.666667h426.666667v85.333333H469.333333v-85.333333z m-341.333333 213.333333l170.666667-170.666667V554.666667l-170.666667-170.666667z m0-384h768v85.333333H128v-85.333333zM128 768v-85.333333h768V768H128z m341.333333-256h426.666667V597.333333H469.333333v-85.333333z m0-170.666667h426.666667v85.333334H469.333333v-85.333334zM469.333333 170.666667h426.666667v85.333333H469.333333v-85.333333z m-341.333333 213.333333l170.666667-170.666667V554.666667l-170.666667-170.666667z m0-384h768v85.333333H128v-85.333333zM128 768v-85.333333h768V768H128z m341.333333-256h426.666667V597.333333H469.333333v-85.333333z m0-170.666667h426.666667v85.333334H469.333333v-85.333334z"  horiz-adv-x="1024" />

    
    <glyph glyph-name="puzzle" unicode="&#58971;" d="M857.6 426.666667h-59.733333V588.8c0 42.666667-38.4 81.066667-81.066667 81.066667H554.666667V729.6c0 55.466667-46.933333 102.4-102.4 102.4S349.866667 785.066667 349.866667 729.6v-59.733333H187.733333c-42.666667 0-81.066667-38.4-81.066666-81.066667v-153.6h59.733333c59.733333 0 110.933333-51.2 110.933333-110.933333S226.133333 213.333333 166.4 213.333333H106.666667v-153.6c0-42.666667 38.4-81.066667 81.066666-81.066666H341.333333v59.733333c0 59.733333 51.2 110.933333 110.933334 110.933333s110.933333-51.2 110.933333-110.933333v-59.733333h153.6c42.666667 0 81.066667 38.4 81.066667 81.066666v162.133334h59.733333c55.466667 0 102.4 46.933333 102.4 102.4S913.066667 426.666667 857.6 426.666667zM857.6 426.666667h-59.733333V588.8c0 42.666667-38.4 81.066667-81.066667 81.066667H554.666667V729.6c0 55.466667-46.933333 102.4-102.4 102.4S349.866667 785.066667 349.866667 729.6v-59.733333H187.733333c-42.666667 0-81.066667-38.4-81.066666-81.066667v-153.6h59.733333c59.733333 0 110.933333-51.2 110.933333-110.933333S226.133333 213.333333 166.4 213.333333H106.666667v-153.6c0-42.666667 38.4-81.066667 81.066666-81.066666H341.333333v59.733333c0 59.733333 51.2 110.933333 110.933334 110.933333s110.933333-51.2 110.933333-110.933333v-59.733333h153.6c42.666667 0 81.066667 38.4 81.066667 81.066666v162.133334h59.733333c55.466667 0 102.4 46.933333 102.4 102.4S913.066667 426.666667 857.6 426.666667z"  horiz-adv-x="1024" />

    
    <glyph glyph-name="refresh" unicode="&#58972;" d="M785.066667 657.066667C712.533333 725.333333 618.666667 768 512 768c-213.333333 0-384-170.666667-384-384s170.666667-384 384-384c179.2 0 328.533333 123.733333 371.2 285.866667h-98.133333c-38.4-110.933333-145.066667-192-273.066667-192-157.866667 0-290.133333 128-290.133333 285.866666s128 290.133333 290.133333 290.133334c81.066667 0 149.333333-34.133333 204.8-85.333334l-153.6-153.6H896V768l-110.933333-110.933333zM785.066667 657.066667C712.533333 725.333333 618.666667 768 512 768c-213.333333 0-384-170.666667-384-384s170.666667-384 384-384c179.2 0 328.533333 123.733333 371.2 285.866667h-98.133333c-38.4-110.933333-145.066667-192-273.066667-192-157.866667 0-290.133333 128-290.133333 285.866666s128 290.133333 290.133333 290.133334c81.066667 0 149.333333-34.133333 204.8-85.333334l-153.6-153.6H896V768l-110.933333-110.933333z"  horiz-adv-x="1024" />

    
    <glyph glyph-name="search" unicode="&#58973;" d="M695.466667 273.066667h-38.4l-12.8 12.8c46.933333 55.466667 76.8 128 76.8 204.8 0 174.933333-140.8 315.733333-315.733334 315.733333S85.333333 669.866667 85.333333 494.933333s140.8-315.733333 315.733334-315.733333c76.8 0 149.333333 29.866667 204.8 76.8l12.8-12.8v-38.4l243.2-243.2 72.533333 72.533333-238.933333 238.933334z m-294.4 0c-119.466667 0-217.6 98.133333-217.6 217.6s98.133333 217.6 217.6 217.6 217.6-98.133333 217.6-217.6-93.866667-217.6-217.6-217.6zM695.466667 273.066667h-38.4l-12.8 12.8c46.933333 55.466667 76.8 128 76.8 204.8 0 174.933333-140.8 315.733333-315.733334 315.733333S85.333333 669.866667 85.333333 494.933333s140.8-315.733333 315.733334-315.733333c76.8 0 149.333333 29.866667 204.8 76.8l12.8-12.8v-38.4l243.2-243.2 72.533333 72.533333-238.933333 238.933334z m-294.4 0c-119.466667 0-217.6 98.133333-217.6 217.6s98.133333 217.6 217.6 217.6 217.6-98.133333 217.6-217.6-93.866667-217.6-217.6-217.6z"  horiz-adv-x="1024" />

    
    <glyph glyph-name="task" unicode="&#58974;" d="M725.333333 341.333333h-213.333333v-213.333333h213.333333v213.333333zM682.666667 810.666667v-85.333334H341.333333V810.666667H256v-85.333334H213.333333c-46.933333 0-85.333333-38.4-85.333333-85.333333v-597.333333c0-46.933333 38.4-85.333333 85.333333-85.333334h597.333334c46.933333 0 85.333333 38.4 85.333333 85.333334V640c0 46.933333-38.4 85.333333-85.333333 85.333333h-42.666667V810.666667h-85.333333z m128-768H213.333333V512h597.333334v-469.333333zM725.333333 341.333333h-213.333333v-213.333333h213.333333v213.333333zM682.666667 810.666667v-85.333334H341.333333V810.666667H256v-85.333334H213.333333c-46.933333 0-85.333333-38.4-85.333333-85.333333v-597.333333c0-46.933333 38.4-85.333333 85.333333-85.333334h597.333334c46.933333 0 85.333333 38.4 85.333333 85.333334V640c0 46.933333-38.4 85.333333-85.333333 85.333333h-42.666667V810.666667h-85.333333z m128-768H213.333333V512h597.333334v-469.333333z"  horiz-adv-x="1024" />

    
    <glyph glyph-name="settings" unicode="&#58975;" d="M128 170.666667v-85.333334h256v85.333334H128zM128 682.666667v-85.333334h426.666667V682.666667H128z m426.666667-682.666667v85.333333h341.333333v85.333334h-341.333333v85.333333h-85.333334v-256h85.333334zM298.666667 512v-85.333333H128v-85.333334h170.666667v-85.333333h85.333333V512H298.666667z m597.333333-170.666667v85.333334H469.333333v-85.333334h426.666667z m-256 170.666667h85.333333V597.333333h170.666667V682.666667h-170.666667V768h-85.333333v-256zM128 170.666667v-85.333334h256v85.333334H128zM128 682.666667v-85.333334h426.666667V682.666667H128z m426.666667-682.666667v85.333333h341.333333v85.333334h-341.333333v85.333333h-85.333334v-256h85.333334zM298.666667 512v-85.333333H128v-85.333334h170.666667v-85.333333h85.333333V512H298.666667z m597.333333-170.666667v85.333334H469.333333v-85.333334h426.666667z m-256 170.666667h85.333333V597.333333h170.666667V682.666667h-170.666667V768h-85.333333v-256z"  horiz-adv-x="1024" />

    
    <glyph glyph-name="success" unicode="&#58976;" d="M512 810.666667C277.333333 810.666667 85.333333 618.666667 85.333333 384s192-426.666667 426.666667-426.666667 426.666667 192 426.666667 426.666667S746.666667 810.666667 512 810.666667z m-85.333333-640l-213.333334 213.333333 59.733334 59.733333 153.6-153.6 324.266666 324.266667L810.666667 554.666667l-384-384zM512 810.666667C277.333333 810.666667 85.333333 618.666667 85.333333 384s192-426.666667 426.666667-426.666667 426.666667 192 426.666667 426.666667S746.666667 810.666667 512 810.666667z m-85.333333-640l-213.333334 213.333333 59.733334 59.733333 153.6-153.6 324.266666 324.266667L810.666667 554.666667l-384-384z"  horiz-adv-x="1024" />

    
    <glyph glyph-name="universal" unicode="&#58977;" d="M524.8 320V0h320v320h-320zM128 0h320v320H128V0zM128 716.8v-320h320V716.8H128zM669.866667 768l-226.133334-226.133333 226.133334-226.133334L896 541.866667 669.866667 768zM524.8 320V0h320v320h-320zM128 0h320v320H128V0zM128 716.8v-320h320V716.8H128zM669.866667 768l-226.133334-226.133333 226.133334-226.133334L896 541.866667 669.866667 768z"  horiz-adv-x="1024" />

    
    <glyph glyph-name="user" unicode="&#58978;" d="M512 810.666667C277.333333 810.666667 85.333333 618.666667 85.333333 384s192-426.666667 426.666667-426.666667 426.666667 192 426.666667 426.666667S746.666667 810.666667 512 810.666667z m0-128c72.533333 0 128-55.466667 128-128s-55.466667-128-128-128-128 55.466667-128 128 55.466667 128 128 128z m0-605.866667c-106.666667 0-200.533333 55.466667-256 136.533333 0 85.333333 170.666667 132.266667 256 132.266667s256-46.933333 256-132.266667c-55.466667-81.066667-149.333333-136.533333-256-136.533333zM512 810.666667C277.333333 810.666667 85.333333 618.666667 85.333333 384s192-426.666667 426.666667-426.666667 426.666667 192 426.666667 426.666667S746.666667 810.666667 512 810.666667z m0-128c72.533333 0 128-55.466667 128-128s-55.466667-128-128-128-128 55.466667-128 128 55.466667 128 128 128z m0-605.866667c-106.666667 0-200.533333 55.466667-256 136.533333 0 85.333333 170.666667 132.266667 256 132.266667s256-46.933333 256-132.266667c-55.466667-81.066667-149.333333-136.533333-256-136.533333z"  horiz-adv-x="1024" />

    
    <glyph glyph-name="upload" unicode="&#58979;" d="M384 213.333333h256v256h170.666667l-298.666667 298.666667-298.666667-298.666667h170.666667v-256z m-170.666667-85.333333h597.333334v-85.333333H213.333333v85.333333zM384 213.333333h256v256h170.666667l-298.666667 298.666667-298.666667-298.666667h170.666667v-256z m-170.666667-85.333333h597.333334v-85.333333H213.333333v85.333333z"  horiz-adv-x="1024" />

    
    <glyph glyph-name="doing" unicode="&#58980;" d="M426.666667 192l256 192-256 192v-384zM512 810.666667C277.333333 810.666667 85.333333 618.666667 85.333333 384s192-426.666667 426.666667-426.666667 426.666667 192 426.666667 426.666667S746.666667 810.666667 512 810.666667z m0-768c-187.733333 0-341.333333 153.6-341.333333 341.333333s153.6 341.333333 341.333333 341.333333 341.333333-153.6 341.333333-341.333333-153.6-341.333333-341.333333-341.333333zM426.666667 192l256 192-256 192v-384zM512 810.666667C277.333333 810.666667 85.333333 618.666667 85.333333 384s192-426.666667 426.666667-426.666667 426.666667 192 426.666667 426.666667S746.666667 810.666667 512 810.666667z m0-768c-187.733333 0-341.333333 153.6-341.333333 341.333333s153.6 341.333333 341.333333 341.333333 341.333333-153.6 341.333333-341.333333-153.6-341.333333-341.333333-341.333333z"  horiz-adv-x="1024" />

    
    <glyph glyph-name="block" unicode="&#58981;" d="M512 810.666667C277.333333 810.666667 85.333333 618.666667 85.333333 384s192-426.666667 426.666667-426.666667 426.666667 192 426.666667 426.666667S746.666667 810.666667 512 810.666667zM170.666667 384c0 187.733333 153.6 341.333333 341.333333 341.333333 81.066667 0 153.6-25.6 209.066667-72.533333L243.2 174.933333C196.266667 234.666667 170.666667 307.2 170.666667 384z m341.333333-341.333333c-81.066667 0-153.6 25.6-209.066667 72.533333L780.8 593.066667c46.933333-55.466667 72.533333-128 72.533333-209.066667 0-187.733333-153.6-341.333333-341.333333-341.333333zM512 810.666667C277.333333 810.666667 85.333333 618.666667 85.333333 384s192-426.666667 426.666667-426.666667 426.666667 192 426.666667 426.666667S746.666667 810.666667 512 810.666667zM170.666667 384c0 187.733333 153.6 341.333333 341.333333 341.333333 81.066667 0 153.6-25.6 209.066667-72.533333L243.2 174.933333C196.266667 234.666667 170.666667 307.2 170.666667 384z m341.333333-341.333333c-81.066667 0-153.6 25.6-209.066667 72.533333L780.8 593.066667c46.933333-55.466667 72.533333-128 72.533333-209.066667 0-187.733333-153.6-341.333333-341.333333-341.333333z"  horiz-adv-x="1024" />

    
    <glyph glyph-name="events" unicode="&#58982;" d="M853.333333 640h-93.866666c4.266667 12.8 8.533333 29.866667 8.533333 42.666667 0 72.533333-55.466667 128-128 128-46.933333 0-85.333333-21.333333-106.666667-59.733334L512 725.333333l-21.333333 29.866667C469.333333 789.333333 430.933333 810.666667 384 810.666667 311.466667 810.666667 256 755.2 256 682.666667c0-12.8 4.266667-29.866667 8.533333-42.666667H170.666667c-46.933333 0-85.333333-38.4-85.333334-85.333333v-469.333334c0-46.933333 38.4-85.333333 85.333334-85.333333h682.666666c46.933333 0 85.333333 38.4 85.333334 85.333333V554.666667c0 46.933333-38.4 85.333333-85.333334 85.333333z m-213.333333 85.333333c25.6 0 42.666667-17.066667 42.666667-42.666666s-17.066667-42.666667-42.666667-42.666667-42.666667 17.066667-42.666667 42.666667 17.066667 42.666667 42.666667 42.666666zM384 725.333333c25.6 0 42.666667-17.066667 42.666667-42.666666s-17.066667-42.666667-42.666667-42.666667-42.666667 21.333333-42.666667 42.666667 17.066667 42.666667 42.666667 42.666666z m469.333333-640H170.666667v85.333334h682.666666v-85.333334z m0 213.333334H170.666667V554.666667h217.6L298.666667 435.2 366.933333 384 469.333333 520.533333l42.666667 59.733334 42.666667-59.733334 102.4-136.533333 68.266666 51.2L635.733333 554.666667H853.333333v-256zM853.333333 640h-93.866666c4.266667 12.8 8.533333 29.866667 8.533333 42.666667 0 72.533333-55.466667 128-128 128-46.933333 0-85.333333-21.333333-106.666667-59.733334L512 725.333333l-21.333333 29.866667C469.333333 789.333333 430.933333 810.666667 384 810.666667 311.466667 810.666667 256 755.2 256 682.666667c0-12.8 4.266667-29.866667 8.533333-42.666667H170.666667c-46.933333 0-85.333333-38.4-85.333334-85.333333v-469.333334c0-46.933333 38.4-85.333333 85.333334-85.333333h682.666666c46.933333 0 85.333333 38.4 85.333334 85.333333V554.666667c0 46.933333-38.4 85.333333-85.333334 85.333333z m-213.333333 85.333333c25.6 0 42.666667-17.066667 42.666667-42.666666s-17.066667-42.666667-42.666667-42.666667-42.666667 17.066667-42.666667 42.666667 17.066667 42.666667 42.666667 42.666666zM384 725.333333c25.6 0 42.666667-17.066667 42.666667-42.666666s-17.066667-42.666667-42.666667-42.666667-42.666667 21.333333-42.666667 42.666667 17.066667 42.666667 42.666667 42.666666z m469.333333-640H170.666667v85.333334h682.666666v-85.333334z m0 213.333334H170.666667V554.666667h217.6L298.666667 435.2 366.933333 384 469.333333 520.533333l42.666667 59.733334 42.666667-59.733334 102.4-136.533333 68.266666 51.2L635.733333 554.666667H853.333333v-256z"  horiz-adv-x="1024" />

    
    <glyph glyph-name="onSchedule" unicode="&#58983;" d="M512 810.666667C277.333333 810.666667 85.333333 618.666667 85.333333 384s192-426.666667 426.666667-426.666667 426.666667 192 426.666667 426.666667S746.666667 810.666667 512 810.666667z m0-768c-187.733333 0-341.333333 153.6-341.333333 341.333333s153.6 341.333333 341.333333 341.333333 341.333333-153.6 341.333333-341.333333-153.6-341.333333-341.333333-341.333333z m21.333333 554.666666H469.333333v-256l221.866667-132.266666 34.133333 51.2-192 115.2V597.333333zM512 810.666667C277.333333 810.666667 85.333333 618.666667 85.333333 384s192-426.666667 426.666667-426.666667 426.666667 192 426.666667 426.666667S746.666667 810.666667 512 810.666667z m0-768c-187.733333 0-341.333333 153.6-341.333333 341.333333s153.6 341.333333 341.333333 341.333333 341.333333-153.6 341.333333-341.333333-153.6-341.333333-341.333333-341.333333z m21.333333 554.666666H469.333333v-256l221.866667-132.266666 34.133333 51.2-192 115.2V597.333333z"  horiz-adv-x="1024" />

    


  </font>
</defs>
</svg>
